HIERARCHY
ROOT __0
{
	OFFSET 0.0 0.0 0.0
	CHANNELS 0
	JOINT Bone
	{
		OFFSET 0.007357 -0.448747 2.251091
		CHANNELS 6 Xposition Yposition Zposition Xrotation Yrotation Zrotation
		JOINT Bone.001
		{
			OFFSET -0.007357 0.044312 1.492886
			CHANNELS 3 Xrotation Yrotation Zrotation
			JOINT Bone.002
			{
				OFFSET 0.000000 -0.022726 0.397251
				CHANNELS 3 Xrotation Yrotation Zrotation
				End Site
				{
					OFFSET 0.000000 -0.021586 0.617946
				}
			}
		}
		JOINT Bone_L
		{
			OFFSET -0.007357 0.044312 1.492886
			CHANNELS 3 Xrotation Yrotation Zrotation
			JOINT Bone_L.001
			{
				OFFSET 0.434034 0.000000 -0.051496
				CHANNELS 3 Xrotation Yrotation Zrotation
				JOINT Bone_L.002
				{
					OFFSET 0.434034 -0.022448 -0.448747
					CHANNELS 3 Xrotation Yrotation Zrotation
					JOINT Bone_L.003
					{
						OFFSET 0.367825 0.000000 -0.345756
						CHANNELS 3 Xrotation Yrotation Zrotation
						End Site
						{
							OFFSET 0.183913 -0.021864 -0.272191
						}
					}
				}
			}
		}
		JOINT Bone_R
		{
			OFFSET -0.007357 0.044312 1.492886
			CHANNELS 3 Xrotation Yrotation Zrotation
			JOINT Bone_R.001
			{
				OFFSET -0.434034 0.000000 -0.051496
				CHANNELS 3 Xrotation Yrotation Zrotation
				JOINT Bone_R.002
				{
					OFFSET -0.434034 -0.022448 -0.448747
					CHANNELS 3 Xrotation Yrotation Zrotation
					JOINT Bone_R.003
					{
						OFFSET -0.367825 0.000000 -0.345756
						CHANNELS 3 Xrotation Yrotation Zrotation
						End Site
						{
							OFFSET -0.183913 -0.021864 -0.272191
						}
					}
				}
			}
		}
	}
	JOINT Bone_L.004
	{
		OFFSET 0.007357 -0.448747 2.251091
		CHANNELS 6 Xposition Yposition Zposition Xrotation Yrotation Zrotation
		JOINT Bone_L.005
		{
			OFFSET 0.434034 0.000000 -0.308973
			CHANNELS 3 Xrotation Yrotation Zrotation
			JOINT Bone_L.006
			{
				OFFSET 0.036783 0.000000 -0.956346
				CHANNELS 3 Xrotation Yrotation Zrotation
				JOINT Bone_L.007
				{
					OFFSET 0.029426 0.000000 -0.860711
					CHANNELS 3 Xrotation Yrotation Zrotation
					End Site
					{
						OFFSET 0.000000 -0.483333 -0.069032
					}
				}
			}
		}
	}
	JOINT Bone_R.004
	{
		OFFSET -0.007357 -0.448747 2.251091
		CHANNELS 6 Xposition Yposition Zposition Xrotation Yrotation Zrotation
		JOINT Bone_R.005
		{
			OFFSET -0.434034 0.000000 -0.308973
			CHANNELS 3 Xrotation Yrotation Zrotation
			JOINT Bone_R.006
			{
				OFFSET -0.036783 0.000000 -0.956346
				CHANNELS 3 Xrotation Yrotation Zrotation
				JOINT Bone_R.007
				{
					OFFSET -0.029426 0.000000 -0.860711
					CHANNELS 3 Xrotation Yrotation Zrotation
					End Site
					{
						OFFSET 0.000000 -0.483333 -0.069032
					}
				}
			}
		}
	}
}
MOTION
Frames: 17
Frame Time: 0.041667
0.007357 -0.448747 2.251091 -0.000000 -0.000000 0.000000 0.000000 -0.000000 0.000000 0.020925 -0.000000 -0.000000 -0.000000 -0.000000 0.000000 -8.909047 21.076415 3.255738 0.008917 0.107357 -0.054466 0.000000 -0.000002 0.000001 -0.000000 -0.000000 0.000000 -0.133153 -22.357784 -0.018256 0.019658 -0.156010 0.016156 0.000000 0.000005 -0.000000 0.007356 -0.448747 2.251091 0.008595 -0.000000 -0.000000 0.054784 0.000000 -0.000000 0.090652 -0.000000 -0.000000 0.100914 -0.000000 -0.000000 -0.007356 -0.448747 2.251091 -0.053081 0.000000 0.000000 -0.122675 0.000000 0.000000 0.237572 -0.000000 0.000000 0.247126 -0.000000 0.000000 
0.007357 -0.448747 2.251091 -0.000000 -0.000000 0.000000 0.000000 -0.000000 0.000000 0.085595 0.000000 -0.000000 -0.000000 -0.000000 0.000000 -8.454182 20.971222 3.164346 0.036457 0.431443 -0.219015 -0.000000 -0.000000 0.000001 -0.000000 -0.000000 0.000000 -0.544695 -22.238106 -0.074143 0.079286 -0.627039 0.065268 0.000000 0.000002 -0.000000 0.007356 -0.448747 2.251091 0.035158 -0.000000 -0.000000 0.228020 0.000000 -0.000000 0.370887 -0.000000 -0.000000 0.405589 0.000000 -0.000000 -0.007356 -0.448747 2.251090 -0.217142 0.000000 0.000000 -0.501992 -0.000000 0.000000 0.965235 0.000000 0.000000 0.993587 -0.000000 0.000000 
0.007357 -0.448747 2.251091 -0.000000 -0.000000 0.000000 0.000000 -0.000000 0.000000 0.195613 0.000000 -0.000000 -0.000000 -0.000000 0.000000 -7.680257 20.785760 3.010634 0.083915 0.965795 -0.490779 -0.000000 -0.000000 0.000001 -0.000000 -0.000000 0.000000 -1.244814 -22.028612 -0.167201 0.178552 -1.403948 0.147371 0.000000 0.000002 -0.000001 0.007356 -0.448747 2.251091 0.080347 -0.000000 -0.000000 0.531398 -0.000001 0.000000 0.847875 -0.000000 -0.000000 0.908060 -0.000000 -0.000000 -0.007356 -0.448747 2.251091 -0.496288 -0.000002 0.000000 -1.147927 -0.000000 0.000000 2.189544 -0.000000 0.000000 2.225743 0.000000 0.000001 
0.007357 -0.448747 2.251091 -0.000000 -0.000000 0.000000 0.000000 -0.000000 0.000000 0.350053 0.000000 -0.000000 -0.000000 -0.000000 0.000000 -6.593852 20.513604 2.798976 0.152030 1.686848 -0.858486 0.000000 -0.000004 0.000001 -0.000000 -0.000000 0.000000 -2.227438 -21.724050 -0.293277 0.314442 -2.452850 0.260441 0.000000 0.000002 -0.000000 0.007356 -0.448747 2.251091 0.143780 0.000002 -0.000000 0.972086 0.000000 -0.000000 1.517964 -0.000000 -0.000000 1.586387 -0.000000 -0.000001 -0.007356 -0.448747 2.251091 -0.888237 0.000000 0.000000 -2.055966 -0.000000 0.000000 3.885411 0.000000 0.000000 3.890894 0.000000 0.000002 
0.007357 -0.448747 2.251091 -0.000000 -0.000000 0.000000 0.000000 -0.000000 0.000000 0.544444 0.000000 -0.000000 -0.000000 -0.000000 0.000000 -5.226821 20.152588 2.540009 0.239754 2.549949 -1.300288 0.000001 -0.000004 0.000000 -0.000000 -0.000000 0.000000 -3.463652 -21.324493 -0.443950 0.480153 -3.709127 0.399335 0.000000 0.000005 -0.000000 0.007356 -0.448747 2.251091 0.223618 -0.000000 -0.000000 1.549439 -0.000000 -0.000000 2.362167 -0.000000 0.000000 2.398834 -0.000000 -0.000001 -0.007356 -0.448747 2.251091 -1.381714 0.000000 -0.000000 -3.200888 -0.000000 0.000000 5.984357 0.000000 0.000000 5.887191 0.000000 0.000003 
0.007357 -0.448747 2.251091 -0.000000 -0.000000 0.000000 0.000000 -0.000000 0.000000 0.770341 0.000000 -0.000000 -0.000000 -0.000000 0.000000 -3.639453 19.707275 2.250430 0.343054 3.489997 -1.783799 0.000000 -0.000004 0.000000 -0.000000 -0.000000 0.000000 -4.898975 -20.837534 -0.607088 0.664616 -5.078264 0.555182 -0.000000 0.000002 0.000000 0.007356 -0.448747 2.251091 0.316391 -0.000003 -0.000000 2.252451 -0.000005 0.000000 3.344172 -0.000000 -0.000000 3.284435 -0.000000 -0.000002 -0.007356 -0.448747 2.251091 -1.955344 0.000000 -0.000000 -4.533888 -0.000000 0.000000 8.370691 0.000000 0.000000 8.064485 0.000000 0.000004 
0.007357 -0.448747 2.251091 -0.000000 -0.000000 0.000000 0.000000 -0.000000 0.000000 1.016032 0.000000 -0.000000 -0.000000 -0.000000 0.000000 -1.915386 19.190033 1.950661 0.454424 4.429136 -2.269558 -0.000001 -0.000002 -0.000000 -0.000000 -0.000000 0.000000 -6.458010 -20.278794 -0.768871 0.853271 -6.446898 0.715839 -0.000000 0.000002 -0.000000 0.007356 -0.448747 2.251091 0.417290 -0.000000 -0.000000 3.059609 -0.000002 0.000000 4.413273 -0.000000 -0.000000 4.170036 -0.000000 -0.000002 -0.007356 -0.448747 2.251091 -2.579425 0.000000 -0.000000 -5.986385 0.000001 0.000001 10.892333 0.000000 0.000000 10.241809 0.000001 0.000005 
0.007357 -0.448747 2.251091 -0.000000 -0.000000 0.000000 0.000000 -0.000000 0.000000 1.268394 0.000000 -0.000000 -0.000000 -0.000000 0.000000 -0.148183 18.619719 1.660910 0.563754 5.289811 -2.717381 -0.000001 -0.000002 0.000000 -0.000000 -0.000000 0.000000 -8.056544 -19.669859 -0.916667 1.030211 -7.701800 0.867619 0.000000 0.000004 -0.000001 0.007356 -0.448747 2.251091 0.520924 -0.000000 0.000000 3.941995 -0.000002 0.000000 5.512352 -0.000000 -0.000000 4.982489 -0.000000 -0.000002 -0.007356 -0.448747 2.251091 -3.220619 0.000000 -0.000000 -7.480778 -0.000001 0.000000 13.385665 0.000000 0.000000 12.238202 0.000001 0.000006 
0.007357 -0.448747 2.251091 -0.000000 -0.000000 0.000000 0.000000 -0.000000 0.000000 1.515152 0.000000 -0.000000 -0.000000 -0.000000 0.000000 1.575053 18.018220 1.397366 0.660331 6.007677 -3.093016 0.000000 -0.000000 -0.000000 -0.000000 -0.000000 0.000000 -9.616239 -19.034342 -1.041442 1.180904 -8.748893 0.997675 -0.000001 0.000004 -0.000001 0.007356 -0.448747 2.251091 0.622253 -0.000000 0.000000 4.868535 0.000000 -0.000000 6.587781 -0.000000 -0.000000 5.660819 -0.000000 -0.000003 -0.007356 -0.448747 2.251091 -3.847706 -0.000002 -0.000000 -8.943933 -0.000001 0.000000 15.704244 0.000000 0.000000 13.903472 0.000001 0.000007 
0.007357 -0.448747 2.251091 -0.000000 -0.000000 0.000000 0.000000 -0.000000 0.000000 1.746570 0.000000 -0.000000 -0.000000 -0.000000 0.000000 3.185823 17.406507 1.170189 0.735003 6.538964 -3.372361 -0.000001 0.000003 0.000000 -0.000000 -0.000000 0.000000 -11.075465 -18.393877 -1.138691 1.294335 -9.524064 1.096031 0.000001 0.000002 -0.000001 0.007356 -0.448747 2.251091 0.717280 -0.000000 -0.000000 5.811003 0.000002 -0.000000 7.596865 -0.000000 -0.000000 6.163301 -0.000000 -0.000003 -0.007356 -0.448747 2.251091 -4.435901 0.000002 0.000001 -10.317465 0.000003 0.000001 17.738666 0.000000 0.000000 15.135750 0.000002 0.000007 
0.007357 -0.448747 2.251091 -0.000000 -0.000000 0.000000 0.000000 -0.000000 0.000000 1.956079 0.000000 -0.000000 -0.000000 -0.000000 0.000000 4.638633 16.801973 0.983629 0.781585 6.860909 -3.542215 -0.000000 -0.000005 0.000000 -0.000000 -0.000000 0.000000 -12.393238 -17.765617 -1.207895 1.363878 -9.993881 1.156523 0.000001 0.000004 -0.000002 0.007356 -0.448747 2.251091 0.803310 0.000002 -0.000000 6.746989 -0.000002 0.000000 8.510727 -0.000000 -0.000000 6.467980 -0.000000 -0.000003 -0.007356 -0.448747 2.251091 -4.968465 -0.000002 -0.000000 -11.561748 -0.000001 0.000000 19.422070 0.000000 0.000000 15.882294 0.000002 0.000007 
0.007357 -0.448747 2.251091 -0.000000 -0.000000 0.000000 0.000000 -0.000000 0.000000 2.140022 0.000000 -0.000000 -0.000000 -0.000000 0.000000 5.908922 16.217273 0.837474 0.797232 6.967517 -3.598556 -0.000000 -0.000000 -0.000000 -0.000000 -0.000000 0.000000 -13.547328 -17.161556 -1.251234 1.387044 -10.149454 1.176706 0.000001 0.000005 -0.000001 0.007356 -0.448747 2.251091 0.878841 -0.000000 -0.000000 7.660601 -0.000000 -0.000000 9.313215 -0.000000 -0.000000 6.568891 -0.000000 -0.000000 -0.007356 -0.448747 2.251091 -5.436069 0.000000 -0.000000 -12.654579 0.000001 0.000001 20.724430 0.000000 0.000000 16.129447 0.000000 0.000000 
0.007357 -0.448747 2.251091 -0.000000 -0.000000 0.000000 0.000000 -0.000000 0.000000 2.319013 0.000000 -0.000000 -0.000000 -0.000000 0.000000 7.140711 15.626433 0.710226 0.787225 6.899420 -3.562561 -0.000000 -0.000004 0.000000 -0.000000 -0.000000 0.000000 -14.667585 -16.567399 -1.280580 1.372238 -10.050084 1.163804 0.000002 0.000004 0.000001 0.007356 -0.448747 2.251091 0.952339 -0.000000 -0.000000 8.648359 -0.000000 -0.000000 10.094164 -0.000001 -0.000000 6.513282 -0.000000 -0.000000 -0.007356 -0.448747 2.251091 -5.891092 0.000002 0.000000 -13.718141 0.000001 0.000000 21.803948 0.000000 0.000000 15.947218 0.000000 0.000000 
0.007357 -0.448747 2.251091 -0.000000 -0.000000 0.000000 0.000000 -0.000000 0.000000 2.514198 0.000000 -0.000000 -0.000000 -0.000000 0.000000 8.480204 14.996421 0.584913 0.757238 6.693515 -3.453844 -0.000000 -0.000002 0.000000 -0.000000 -0.000000 0.000000 -15.886178 -15.961744 -1.303734 1.327641 -9.749596 1.124986 -0.000000 0.000004 0.000000 0.007356 -0.448747 2.251091 1.032485 -0.000003 -0.000000 9.811845 -0.000002 0.000000 10.945745 -0.000000 -0.000000 6.345172 0.000000 -0.000000 -0.007356 -0.448747 2.251091 -6.387281 -0.000000 0.000001 -14.877889 0.000001 0.000001 22.817922 0.000001 0.000000 15.396061 0.000001 -0.000000 
0.007357 -0.448747 2.251091 -0.000000 -0.000000 0.000000 0.000000 -0.000000 0.000000 2.723771 0.000000 -0.000000 -0.000000 -0.000000 0.000000 9.913773 14.326880 0.466439 0.708234 6.350730 -3.273254 -0.000000 -0.000005 0.000000 -0.000000 -0.000000 0.000000 -17.191187 -15.342096 -1.317649 1.253956 -9.249395 1.060977 0.000002 0.000009 -0.000001 0.007356 -0.448747 2.251091 1.118542 -0.000003 0.000000 11.141125 -0.000002 0.000000 11.859998 -0.000001 0.000000 6.065416 -0.000000 -0.000000 -0.007356 -0.448747 2.251091 -6.920028 0.000000 0.000000 -16.122831 0.000001 0.000001 23.756054 0.000000 0.000000 14.478073 0.000000 -0.000001 
0.007357 -0.448747 2.251091 -0.000000 -0.000000 0.000000 0.000000 -0.000000 0.000000 2.944766 0.000000 -0.000000 -0.000000 -0.000000 0.000000 11.419778 13.619275 0.360380 0.642511 5.877943 -3.024982 0.000000 -0.000000 -0.000000 -0.000000 -0.000000 0.000000 -18.563425 -14.705848 -1.318913 1.153454 -8.559636 0.973933 0.000001 0.000005 -0.000001 0.007356 -0.448747 2.251091 1.209288 -0.000000 0.000000 12.615975 -0.000000 -0.000000 12.823819 -0.000001 0.000000 5.679819 -0.000000 0.000000 -0.007356 -0.448747 2.251091 -7.481764 -0.000000 0.000001 -17.434977 0.000000 0.000001 24.608108 0.000000 0.000000 13.211263 0.000000 -0.000001 
0.007357 -0.448747 2.251091 -0.000000 -0.000000 0.000000 0.000000 -0.000000 0.000000 3.172873 0.000000 -0.000000 -0.000000 -0.000000 0.000000 12.967612 12.877461 0.272610 0.563757 5.289814 -2.717381 -0.000001 0.000001 -0.000001 -0.000000 -0.000000 0.000000 -19.975505 -14.050466 -1.303906 1.030209 -7.701801 0.867619 -0.000000 0.000002 0.000000 0.007356 -0.448747 2.251091 1.302957 -0.000000 0.000000 14.203786 -0.000001 -0.000000 13.818253 -0.000001 0.000000 5.200519 -0.000000 0.000000 -0.007356 -0.448747 2.251091 -8.061507 0.000000 0.000000 -18.788305 0.000001 0.000001 25.364855 0.000000 0.000000 11.634578 0.000000 -0.000002 
